<mxfile host="app.diagrams.net" modified="2023-05-22T12:36:31.074Z" agent="Mozilla/5.0 (Windows NT 10.0; Win64; x64) AppleWebKit/537.36 (KHTML, like Gecko) Chrome/113.0.0.0 Safari/537.36 Edg/113.0.1774.50" etag="v_qkw6_MfXY0_m-5a5js" version="21.3.2" type="github">
  <diagram name="第 1 页" id="wmCSbjwYz0xRB0pka1Ez">
    <mxGraphModel dx="781" dy="467" grid="1" gridSize="10" guides="1" tooltips="1" connect="1" arrows="1" fold="1" page="1" pageScale="1" pageWidth="827" pageHeight="1169" math="1" shadow="0">
      <root>
        <mxCell id="0" />
        <mxCell id="1" parent="0" />
        <mxCell id="-SjRX3zIFBPj9apqSu5r-2" value="&amp;amp;" style="rounded=0;whiteSpace=wrap;html=1;direction=south;fontSize=16;" parent="1" vertex="1">
          <mxGeometry x="320" y="210" width="40" height="60" as="geometry" />
        </mxCell>
        <mxCell id="-SjRX3zIFBPj9apqSu5r-7" value="" style="endArrow=none;html=1;rounded=0;" parent="1" edge="1">
          <mxGeometry width="50" height="50" relative="1" as="geometry">
            <mxPoint x="300" y="260" as="sourcePoint" />
            <mxPoint x="320" y="260" as="targetPoint" />
          </mxGeometry>
        </mxCell>
        <mxCell id="-SjRX3zIFBPj9apqSu5r-15" value="" style="ellipse;whiteSpace=wrap;html=1;aspect=fixed;" parent="1" vertex="1">
          <mxGeometry x="360" y="237.5" width="5" height="5" as="geometry" />
        </mxCell>
        <mxCell id="-SjRX3zIFBPj9apqSu5r-16" value="" style="endArrow=none;html=1;rounded=0;" parent="1" edge="1">
          <mxGeometry width="50" height="50" relative="1" as="geometry">
            <mxPoint x="400" y="240" as="sourcePoint" />
            <mxPoint x="365" y="239.84" as="targetPoint" />
          </mxGeometry>
        </mxCell>
        <mxCell id="-SjRX3zIFBPj9apqSu5r-17" value="" style="shape=waypoint;sketch=0;fillStyle=solid;size=6;pointerEvents=1;points=[];fillColor=none;resizable=0;rotatable=0;perimeter=centerPerimeter;snapToPoint=1;" parent="1" vertex="1">
          <mxGeometry x="370" y="230" width="20" height="20" as="geometry" />
        </mxCell>
        <mxCell id="-SjRX3zIFBPj9apqSu5r-22" value="&amp;amp;" style="rounded=0;whiteSpace=wrap;html=1;direction=south;fontSize=16;" parent="1" vertex="1">
          <mxGeometry x="320" y="330" width="40" height="60" as="geometry" />
        </mxCell>
        <mxCell id="-SjRX3zIFBPj9apqSu5r-23" value="" style="endArrow=none;html=1;rounded=0;" parent="1" edge="1">
          <mxGeometry width="50" height="50" relative="1" as="geometry">
            <mxPoint x="300" y="340" as="sourcePoint" />
            <mxPoint x="320" y="340" as="targetPoint" />
          </mxGeometry>
        </mxCell>
        <mxCell id="-SjRX3zIFBPj9apqSu5r-25" value="" style="endArrow=none;html=1;rounded=0;" parent="1" edge="1">
          <mxGeometry width="50" height="50" relative="1" as="geometry">
            <mxPoint x="300" y="280" as="sourcePoint" />
            <mxPoint x="300" y="260" as="targetPoint" />
          </mxGeometry>
        </mxCell>
        <mxCell id="-SjRX3zIFBPj9apqSu5r-26" value="" style="endArrow=none;html=1;rounded=0;" parent="1" edge="1">
          <mxGeometry width="50" height="50" relative="1" as="geometry">
            <mxPoint x="380" y="320" as="sourcePoint" />
            <mxPoint x="300" y="280" as="targetPoint" />
          </mxGeometry>
        </mxCell>
        <mxCell id="-SjRX3zIFBPj9apqSu5r-27" value="" style="endArrow=none;html=1;rounded=0;" parent="1" edge="1">
          <mxGeometry width="50" height="50" relative="1" as="geometry">
            <mxPoint x="300" y="340" as="sourcePoint" />
            <mxPoint x="300" y="320" as="targetPoint" />
          </mxGeometry>
        </mxCell>
        <mxCell id="-SjRX3zIFBPj9apqSu5r-28" value="" style="endArrow=none;html=1;rounded=0;" parent="1" edge="1">
          <mxGeometry width="50" height="50" relative="1" as="geometry">
            <mxPoint x="300" y="320" as="sourcePoint" />
            <mxPoint x="380" y="280" as="targetPoint" />
          </mxGeometry>
        </mxCell>
        <mxCell id="-SjRX3zIFBPj9apqSu5r-29" value="" style="ellipse;whiteSpace=wrap;html=1;aspect=fixed;" parent="1" vertex="1">
          <mxGeometry x="360" y="357.5" width="5" height="5" as="geometry" />
        </mxCell>
        <mxCell id="-SjRX3zIFBPj9apqSu5r-30" value="" style="endArrow=none;html=1;rounded=0;" parent="1" edge="1">
          <mxGeometry width="50" height="50" relative="1" as="geometry">
            <mxPoint x="400" y="360" as="sourcePoint" />
            <mxPoint x="365" y="359.84000000000003" as="targetPoint" />
          </mxGeometry>
        </mxCell>
        <mxCell id="-SjRX3zIFBPj9apqSu5r-31" value="" style="shape=waypoint;sketch=0;fillStyle=solid;size=6;pointerEvents=1;points=[];fillColor=none;resizable=0;rotatable=0;perimeter=centerPerimeter;snapToPoint=1;" parent="1" vertex="1">
          <mxGeometry x="370" y="350" width="20" height="20" as="geometry" />
        </mxCell>
        <mxCell id="-SjRX3zIFBPj9apqSu5r-32" value="" style="endArrow=none;html=1;rounded=0;exitX=0.117;exitY=0.686;exitDx=0;exitDy=0;exitPerimeter=0;" parent="1" source="-SjRX3zIFBPj9apqSu5r-31" edge="1">
          <mxGeometry width="50" height="50" relative="1" as="geometry">
            <mxPoint x="330" y="370" as="sourcePoint" />
            <mxPoint x="380" y="320" as="targetPoint" />
          </mxGeometry>
        </mxCell>
        <mxCell id="-SjRX3zIFBPj9apqSu5r-33" value="" style="endArrow=none;html=1;rounded=0;" parent="1" target="-SjRX3zIFBPj9apqSu5r-17" edge="1">
          <mxGeometry width="50" height="50" relative="1" as="geometry">
            <mxPoint x="380" y="280" as="sourcePoint" />
            <mxPoint x="430" y="230" as="targetPoint" />
          </mxGeometry>
        </mxCell>
        <mxCell id="-SjRX3zIFBPj9apqSu5r-36" value="$$\overline{Q}$$" style="text;html=1;strokeColor=none;fillColor=none;align=center;verticalAlign=middle;whiteSpace=wrap;rounded=0;fontSize=10;" parent="1" vertex="1">
          <mxGeometry x="380" y="350" width="60" height="30" as="geometry" />
        </mxCell>
        <mxCell id="-SjRX3zIFBPj9apqSu5r-37" value="$$Q$$" style="text;html=1;strokeColor=none;fillColor=none;align=center;verticalAlign=middle;whiteSpace=wrap;rounded=0;fontSize=10;" parent="1" vertex="1">
          <mxGeometry x="380" y="220" width="60" height="30" as="geometry" />
        </mxCell>
        <mxCell id="-SjRX3zIFBPj9apqSu5r-41" value="" style="rounded=0;whiteSpace=wrap;html=1;direction=south;" parent="1" vertex="1">
          <mxGeometry x="480" y="260" width="60" height="80" as="geometry" />
        </mxCell>
        <mxCell id="-SjRX3zIFBPj9apqSu5r-46" value="" style="ellipse;whiteSpace=wrap;html=1;aspect=fixed;" parent="1" vertex="1">
          <mxGeometry x="540" y="317" width="5" height="5" as="geometry" />
        </mxCell>
        <mxCell id="-SjRX3zIFBPj9apqSu5r-53" value="" style="endArrow=none;html=1;rounded=0;" parent="1" edge="1">
          <mxGeometry width="50" height="50" relative="1" as="geometry">
            <mxPoint x="580" y="319.50000000000006" as="sourcePoint" />
            <mxPoint x="545" y="319.34000000000003" as="targetPoint" />
          </mxGeometry>
        </mxCell>
        <mxCell id="-SjRX3zIFBPj9apqSu5r-56" value="$$\overline{Q}$$" style="text;html=1;strokeColor=none;fillColor=none;align=center;verticalAlign=middle;whiteSpace=wrap;rounded=0;fontSize=10;" parent="1" vertex="1">
          <mxGeometry x="560" y="304.5" width="60" height="30" as="geometry" />
        </mxCell>
        <mxCell id="-SjRX3zIFBPj9apqSu5r-57" value="" style="endArrow=none;html=1;rounded=0;" parent="1" edge="1">
          <mxGeometry width="50" height="50" relative="1" as="geometry">
            <mxPoint x="540" y="280" as="sourcePoint" />
            <mxPoint x="580" y="280" as="targetPoint" />
          </mxGeometry>
        </mxCell>
        <mxCell id="-SjRX3zIFBPj9apqSu5r-58" value="$$Q$$" style="text;html=1;strokeColor=none;fillColor=none;align=center;verticalAlign=middle;whiteSpace=wrap;rounded=0;fontSize=10;" parent="1" vertex="1">
          <mxGeometry x="560" y="260" width="60" height="30" as="geometry" />
        </mxCell>
        <mxCell id="g9OyC2hgeesEp-PIXYKm-16" value="&amp;amp;" style="rounded=0;whiteSpace=wrap;html=1;direction=south;fontSize=16;" parent="1" vertex="1">
          <mxGeometry x="200" y="210" width="40" height="60" as="geometry" />
        </mxCell>
        <mxCell id="g9OyC2hgeesEp-PIXYKm-17" value="" style="ellipse;whiteSpace=wrap;html=1;aspect=fixed;" parent="1" vertex="1">
          <mxGeometry x="240" y="237.5" width="5" height="5" as="geometry" />
        </mxCell>
        <mxCell id="g9OyC2hgeesEp-PIXYKm-18" value="&amp;amp;" style="rounded=0;whiteSpace=wrap;html=1;direction=south;fontSize=16;" parent="1" vertex="1">
          <mxGeometry x="200" y="330" width="40" height="60" as="geometry" />
        </mxCell>
        <mxCell id="g9OyC2hgeesEp-PIXYKm-19" value="" style="ellipse;whiteSpace=wrap;html=1;aspect=fixed;" parent="1" vertex="1">
          <mxGeometry x="240" y="357.5" width="5" height="5" as="geometry" />
        </mxCell>
        <mxCell id="g9OyC2hgeesEp-PIXYKm-24" value="" style="endArrow=none;html=1;rounded=0;exitX=1;exitY=0.5;exitDx=0;exitDy=0;" parent="1" source="g9OyC2hgeesEp-PIXYKm-17" edge="1">
          <mxGeometry width="50" height="50" relative="1" as="geometry">
            <mxPoint x="270" y="240" as="sourcePoint" />
            <mxPoint x="320" y="240" as="targetPoint" />
          </mxGeometry>
        </mxCell>
        <mxCell id="g9OyC2hgeesEp-PIXYKm-25" value="" style="endArrow=none;html=1;rounded=0;exitX=1;exitY=0.5;exitDx=0;exitDy=0;" parent="1" edge="1">
          <mxGeometry width="50" height="50" relative="1" as="geometry">
            <mxPoint x="245" y="359.83" as="sourcePoint" />
            <mxPoint x="320" y="359.83" as="targetPoint" />
          </mxGeometry>
        </mxCell>
        <mxCell id="g9OyC2hgeesEp-PIXYKm-27" value="" style="endArrow=none;html=1;rounded=0;" parent="1" edge="1">
          <mxGeometry width="50" height="50" relative="1" as="geometry">
            <mxPoint x="80" y="380" as="sourcePoint" />
            <mxPoint x="200" y="380" as="targetPoint" />
          </mxGeometry>
        </mxCell>
        <mxCell id="g9OyC2hgeesEp-PIXYKm-29" value="" style="endArrow=none;html=1;rounded=0;" parent="1" edge="1">
          <mxGeometry width="50" height="50" relative="1" as="geometry">
            <mxPoint x="190" y="340" as="sourcePoint" />
            <mxPoint x="200" y="340" as="targetPoint" />
          </mxGeometry>
        </mxCell>
        <mxCell id="g9OyC2hgeesEp-PIXYKm-30" value="" style="endArrow=none;html=1;rounded=0;" parent="1" edge="1">
          <mxGeometry width="50" height="50" relative="1" as="geometry">
            <mxPoint x="190" y="260" as="sourcePoint" />
            <mxPoint x="200" y="260" as="targetPoint" />
          </mxGeometry>
        </mxCell>
        <mxCell id="g9OyC2hgeesEp-PIXYKm-31" value="" style="endArrow=none;html=1;rounded=0;" parent="1" edge="1">
          <mxGeometry width="50" height="50" relative="1" as="geometry">
            <mxPoint x="190" y="340" as="sourcePoint" />
            <mxPoint x="190" y="260" as="targetPoint" />
          </mxGeometry>
        </mxCell>
        <mxCell id="g9OyC2hgeesEp-PIXYKm-32" value="" style="shape=waypoint;sketch=0;fillStyle=solid;size=6;pointerEvents=1;points=[];fillColor=none;resizable=0;rotatable=0;perimeter=centerPerimeter;snapToPoint=1;" parent="1" vertex="1">
          <mxGeometry x="180" y="290" width="20" height="20" as="geometry" />
        </mxCell>
        <mxCell id="g9OyC2hgeesEp-PIXYKm-34" value="" style="endArrow=none;html=1;rounded=0;" parent="1" source="g9OyC2hgeesEp-PIXYKm-32" edge="1">
          <mxGeometry width="50" height="50" relative="1" as="geometry">
            <mxPoint x="110" y="350" as="sourcePoint" />
            <mxPoint x="160" y="300" as="targetPoint" />
          </mxGeometry>
        </mxCell>
        <mxCell id="g9OyC2hgeesEp-PIXYKm-37" value="$$CP$$" style="text;html=1;strokeColor=none;fillColor=none;align=center;verticalAlign=middle;whiteSpace=wrap;rounded=0;fontSize=10;" parent="1" vertex="1">
          <mxGeometry x="120" y="285" width="60" height="30" as="geometry" />
        </mxCell>
        <mxCell id="g9OyC2hgeesEp-PIXYKm-39" value="" style="endArrow=none;html=1;rounded=0;" parent="1" edge="1">
          <mxGeometry width="50" height="50" relative="1" as="geometry">
            <mxPoint x="480" y="320.1574803149607" as="sourcePoint" />
            <mxPoint x="440" y="320.1574803149607" as="targetPoint" />
          </mxGeometry>
        </mxCell>
        <mxCell id="g9OyC2hgeesEp-PIXYKm-40" value="$$CP$$" style="text;html=1;strokeColor=none;fillColor=none;align=center;verticalAlign=middle;whiteSpace=wrap;rounded=0;fontSize=10;" parent="1" vertex="1">
          <mxGeometry x="400" y="304.5" width="60" height="30" as="geometry" />
        </mxCell>
        <mxCell id="g9OyC2hgeesEp-PIXYKm-43" value="1" style="rounded=0;whiteSpace=wrap;html=1;direction=south;fontSize=16;" parent="1" vertex="1">
          <mxGeometry x="120.00000000000011" y="190.0000000000001" width="40" height="60" as="geometry" />
        </mxCell>
        <mxCell id="g9OyC2hgeesEp-PIXYKm-44" value="" style="endArrow=none;html=1;rounded=0;" parent="1" edge="1">
          <mxGeometry width="50" height="50" relative="1" as="geometry">
            <mxPoint x="100" y="220" as="sourcePoint" />
            <mxPoint x="120.00000000000011" y="220.0000000000001" as="targetPoint" />
            <Array as="points">
              <mxPoint x="100.00000000000011" y="220.0000000000001" />
            </Array>
          </mxGeometry>
        </mxCell>
        <mxCell id="g9OyC2hgeesEp-PIXYKm-45" value="" style="ellipse;whiteSpace=wrap;html=1;aspect=fixed;" parent="1" vertex="1">
          <mxGeometry x="160.0000000000001" y="217.5000000000001" width="5" height="5" as="geometry" />
        </mxCell>
        <mxCell id="g9OyC2hgeesEp-PIXYKm-46" value="" style="endArrow=none;html=1;rounded=0;" parent="1" edge="1">
          <mxGeometry width="50" height="50" relative="1" as="geometry">
            <mxPoint x="165.0000000000001" y="219.66000000000014" as="sourcePoint" />
            <mxPoint x="200.0000000000001" y="220.0000000000001" as="targetPoint" />
          </mxGeometry>
        </mxCell>
        <mxCell id="g9OyC2hgeesEp-PIXYKm-47" value="" style="endArrow=none;html=1;rounded=0;" parent="1" source="g9OyC2hgeesEp-PIXYKm-49" edge="1">
          <mxGeometry width="50" height="50" relative="1" as="geometry">
            <mxPoint x="100" y="380" as="sourcePoint" />
            <mxPoint x="100" y="220" as="targetPoint" />
          </mxGeometry>
        </mxCell>
        <mxCell id="g9OyC2hgeesEp-PIXYKm-48" value="" style="endArrow=none;html=1;rounded=0;" parent="1" target="g9OyC2hgeesEp-PIXYKm-49" edge="1">
          <mxGeometry width="50" height="50" relative="1" as="geometry">
            <mxPoint x="100" y="380" as="sourcePoint" />
            <mxPoint x="100" y="220" as="targetPoint" />
          </mxGeometry>
        </mxCell>
        <mxCell id="g9OyC2hgeesEp-PIXYKm-49" value="" style="shape=waypoint;sketch=0;fillStyle=solid;size=6;pointerEvents=1;points=[];fillColor=none;resizable=0;rotatable=0;perimeter=centerPerimeter;snapToPoint=1;" parent="1" vertex="1">
          <mxGeometry x="90" y="370" width="20" height="20" as="geometry" />
        </mxCell>
        <mxCell id="g9OyC2hgeesEp-PIXYKm-50" value="$$D$$" style="text;html=1;strokeColor=none;fillColor=none;align=center;verticalAlign=middle;whiteSpace=wrap;rounded=0;fontSize=10;" parent="1" vertex="1">
          <mxGeometry x="70" y="380" width="60" height="30" as="geometry" />
        </mxCell>
        <mxCell id="CAZkIjHNJy-WSnRjQE0e-1" value="" style="endArrow=none;html=1;rounded=0;" edge="1" parent="1">
          <mxGeometry width="50" height="50" relative="1" as="geometry">
            <mxPoint x="440" y="280" as="sourcePoint" />
            <mxPoint x="480" y="280" as="targetPoint" />
          </mxGeometry>
        </mxCell>
        <mxCell id="CAZkIjHNJy-WSnRjQE0e-2" value="$$D$$" style="text;html=1;strokeColor=none;fillColor=none;align=center;verticalAlign=middle;whiteSpace=wrap;rounded=0;fontSize=10;" vertex="1" parent="1">
          <mxGeometry x="400" y="260" width="60" height="30" as="geometry" />
        </mxCell>
      </root>
    </mxGraphModel>
  </diagram>
</mxfile>
